<?xml version="1.0" encoding="UTF-8" standalone="no"?>
<!DOCTYPE svg PUBLIC "-//W3C//DTD SVG 1.1//EN" "http://www.w3.org/Graphics/SVG/1.1/DTD/svg11.dtd">
<svg width="100%" height="100%" viewBox="0 0 555 397" version="1.1" xmlns="http://www.w3.org/2000/svg" xmlns:xlink="http://www.w3.org/1999/xlink" xml:space="preserve" xmlns:serif="http://www.serif.com/" style="fill-rule:evenodd;clip-rule:evenodd;stroke-linecap:round;stroke-linejoin:round;stroke-miterlimit:1.5;">
    <g>
        <g transform="matrix(1,0,0,1,0.386,-0.001)">
            <path d="M277.114,118.191L353.784,257.156L277.114,396.12L200.444,257.156L277.114,118.191Z" style="fill:url(#_Linear1);stroke:white;stroke-width:1.01px;"/>
        </g>
        <g>
            <path d="M200.443,0.538L250.417,48.847L200.443,97.153L150.471,48.847L200.443,0.538Z" style="fill:url(#_Linear2);stroke:white;stroke-width:1.01px;"/>
        </g>
        <g>
            <path d="M100.498,118.19L150.472,166.499L100.498,214.805L50.527,166.499L100.498,118.19Z" style="fill:url(#_Linear3);stroke:white;stroke-width:1.01px;"/>
        </g>
        <g>
            <path d="M353.783,0.538L403.757,48.847L353.783,97.153L303.811,48.847L353.783,0.538Z" style="fill:url(#_Linear4);stroke:white;stroke-width:1.01px;"/>
        </g>
        <g transform="matrix(1,0,0,1,0.001,0)">
            <path d="M453.728,118.19L503.702,166.499L453.728,214.805L403.756,166.499L453.728,118.19Z" style="fill:url(#_Linear5);stroke:white;stroke-width:1.01px;"/>
        </g>
    </g>
    <defs>
        <linearGradient id="_Linear1" x1="0" y1="0" x2="1" y2="0" gradientUnits="userSpaceOnUse" gradientTransform="matrix(153.34,0,0,153.34,200.444,257.156)"><stop offset="0" style="stop-color:rgb(34,98,255);stop-opacity:1"/><stop offset="1" style="stop-color:white;stop-opacity:1"/></linearGradient>
        <linearGradient id="_Linear2" x1="0" y1="0" x2="1" y2="0" gradientUnits="userSpaceOnUse" gradientTransform="matrix(99.9456,0,0,99.9456,150.471,48.8456)"><stop offset="0" style="stop-color:rgb(34,98,255);stop-opacity:1"/><stop offset="1" style="stop-color:white;stop-opacity:1"/></linearGradient>
        <linearGradient id="_Linear3" x1="0" y1="0" x2="1" y2="0" gradientUnits="userSpaceOnUse" gradientTransform="matrix(99.9449,0,0,99.9449,50.5267,166.499)"><stop offset="0" style="stop-color:rgb(34,98,255);stop-opacity:1"/><stop offset="1" style="stop-color:white;stop-opacity:1"/></linearGradient>
        <linearGradient id="_Linear4" x1="0" y1="0" x2="1" y2="0" gradientUnits="userSpaceOnUse" gradientTransform="matrix(99.9449,0,0,99.9449,303.811,48.8469)"><stop offset="0" style="stop-color:rgb(34,98,255);stop-opacity:1"/><stop offset="1" style="stop-color:white;stop-opacity:1"/></linearGradient>
        <linearGradient id="_Linear5" x1="0" y1="0" x2="1" y2="0" gradientUnits="userSpaceOnUse" gradientTransform="matrix(99.9449,0,0,99.9449,403.756,166.499)"><stop offset="0" style="stop-color:rgb(34,98,255);stop-opacity:1"/><stop offset="1" style="stop-color:white;stop-opacity:1"/></linearGradient>
    </defs>
</svg>
